<mxfile host="65bd71144e">
    <diagram id="p86AYutXJtMG6QcXDI-o" name="Page-1">
        <mxGraphModel dx="1456" dy="520" grid="1" gridSize="10" guides="1" tooltips="1" connect="1" arrows="1" fold="1" page="1" pageScale="1" pageWidth="827" pageHeight="1169" math="0" shadow="0">
            <root>
                <mxCell id="0"/>
                <mxCell id="1" parent="0"/>
                <mxCell id="35" value="" style="group" vertex="1" connectable="0" parent="1">
                    <mxGeometry x="-60" y="440" width="280" height="140" as="geometry"/>
                </mxCell>
                <mxCell id="32" value="User" style="whiteSpace=wrap;html=1;shadow=1;fontSize=12;" vertex="1" parent="35">
                    <mxGeometry width="280" height="23.333333333333336" as="geometry"/>
                </mxCell>
                <mxCell id="33" value="PK" style="whiteSpace=wrap;html=1;shadow=1;fontSize=12;align=center;verticalAlign=top;" vertex="1" parent="35">
                    <mxGeometry y="23.333333333333336" width="44.800000000000004" height="116.66666666666667" as="geometry"/>
                </mxCell>
                <mxCell id="34" value="&amp;nbsp; ID　　　　　　　&amp;nbsp; &amp;nbsp; &amp;nbsp; &amp;nbsp; Int&lt;br&gt;&amp;nbsp; name&amp;nbsp; &amp;nbsp; &amp;nbsp; &amp;nbsp; &amp;nbsp; &amp;nbsp; &amp;nbsp; &amp;nbsp; &amp;nbsp; &amp;nbsp; &amp;nbsp; &amp;nbsp; &amp;nbsp; &amp;nbsp; VarChar(20)&lt;br&gt;&amp;nbsp; email&amp;nbsp; &amp;nbsp; &amp;nbsp; &amp;nbsp; &amp;nbsp; &amp;nbsp; &amp;nbsp; &amp;nbsp; &amp;nbsp; &amp;nbsp; &amp;nbsp; &amp;nbsp; &amp;nbsp; &amp;nbsp; VarChar(50)&lt;br&gt;&amp;nbsp; hashed_password&amp;nbsp; &amp;nbsp; &amp;nbsp; &amp;nbsp; VarChar(20)&lt;br&gt;&amp;nbsp; icon&amp;nbsp; &amp;nbsp; &amp;nbsp; &amp;nbsp; &amp;nbsp; &amp;nbsp; &amp;nbsp; &amp;nbsp; &amp;nbsp; &amp;nbsp; &amp;nbsp; &amp;nbsp; &amp;nbsp; &amp;nbsp; &amp;nbsp; &amp;nbsp;Enum&lt;br&gt;&amp;nbsp;&amp;nbsp;" style="whiteSpace=wrap;html=1;shadow=1;fontSize=12;verticalAlign=top;align=left;labelBorderColor=none;strokeColor=default;" vertex="1" parent="35">
                    <mxGeometry x="44.800000000000004" y="23.333333333333336" width="235.20000000000002" height="116.66666666666667" as="geometry"/>
                </mxCell>
                <mxCell id="36" value="" style="group" vertex="1" connectable="0" parent="1">
                    <mxGeometry x="530" y="230" width="320" height="120" as="geometry"/>
                </mxCell>
                <mxCell id="37" value="house" style="whiteSpace=wrap;html=1;shadow=1;fontSize=12;" vertex="1" parent="36">
                    <mxGeometry width="319.99999999999994" height="20" as="geometry"/>
                </mxCell>
                <mxCell id="38" value="PK" style="whiteSpace=wrap;html=1;shadow=1;fontSize=12;align=center;verticalAlign=top;" vertex="1" parent="36">
                    <mxGeometry y="20" width="75.29411764705881" height="100" as="geometry"/>
                </mxCell>
                <mxCell id="39" value="&amp;nbsp; ID&amp;nbsp; &amp;nbsp; &amp;nbsp; &amp;nbsp; &amp;nbsp; &amp;nbsp; &amp;nbsp; &amp;nbsp; &amp;nbsp; &amp;nbsp; &amp;nbsp; &amp;nbsp; &amp;nbsp; &amp;nbsp; &amp;nbsp; &amp;nbsp; &amp;nbsp; &amp;nbsp; Int&lt;br&gt;&amp;nbsp; name&amp;nbsp; &amp;nbsp; &amp;nbsp; &amp;nbsp; &amp;nbsp; &amp;nbsp; &amp;nbsp; &amp;nbsp; &amp;nbsp; &amp;nbsp; &amp;nbsp; &amp;nbsp; &amp;nbsp; &amp;nbsp; &amp;nbsp; &amp;nbsp;VarChart(20)&amp;nbsp;&lt;br&gt;&amp;nbsp; is_expense_per_time&amp;nbsp; &amp;nbsp; &amp;nbsp; Boolean&lt;br&gt;&amp;nbsp;&amp;nbsp;" style="whiteSpace=wrap;html=1;shadow=1;fontSize=12;verticalAlign=top;align=left;labelBorderColor=none;strokeColor=default;" vertex="1" parent="36">
                    <mxGeometry x="75.29411764705881" y="20" width="244.70588235294116" height="100" as="geometry"/>
                </mxCell>
                <mxCell id="40" value="" style="group" vertex="1" connectable="0" parent="1">
                    <mxGeometry x="430" y="450" width="230" height="120" as="geometry"/>
                </mxCell>
                <mxCell id="41" value="rule" style="whiteSpace=wrap;html=1;shadow=1;fontSize=12;" vertex="1" parent="40">
                    <mxGeometry width="230" height="20" as="geometry"/>
                </mxCell>
                <mxCell id="42" value="PK&lt;br&gt;&lt;br&gt;FK" style="whiteSpace=wrap;html=1;shadow=1;fontSize=12;align=center;verticalAlign=top;" vertex="1" parent="40">
                    <mxGeometry y="20" width="46.11764705882352" height="100" as="geometry"/>
                </mxCell>
                <mxCell id="43" value="&amp;nbsp; ID&amp;nbsp; &amp;nbsp; &amp;nbsp; &amp;nbsp; &amp;nbsp; &amp;nbsp; &amp;nbsp; &amp;nbsp; &amp;nbsp; &amp;nbsp; Int&lt;br&gt;&amp;nbsp; text&amp;nbsp; &amp;nbsp; &amp;nbsp; &amp;nbsp; &amp;nbsp; &amp;nbsp; &amp;nbsp; &amp;nbsp; &amp;nbsp; VarChar(100)&lt;br&gt;&amp;nbsp; house_id&amp;nbsp; &amp;nbsp; &amp;nbsp; &amp;nbsp; &amp;nbsp;Int" style="whiteSpace=wrap;html=1;shadow=1;fontSize=12;verticalAlign=top;align=left;labelBorderColor=none;strokeColor=default;" vertex="1" parent="40">
                    <mxGeometry x="46.12" y="20" width="183.88" height="100" as="geometry"/>
                </mxCell>
                <mxCell id="45" value="" style="group" vertex="1" connectable="0" parent="1">
                    <mxGeometry x="260" y="250" width="170" height="120" as="geometry"/>
                </mxCell>
                <mxCell id="46" value="user_house" style="whiteSpace=wrap;html=1;shadow=1;fontSize=12;" vertex="1" parent="45">
                    <mxGeometry width="170" height="20" as="geometry"/>
                </mxCell>
                <mxCell id="47" value="PK&lt;br&gt;FK&lt;br&gt;FK" style="whiteSpace=wrap;html=1;shadow=1;fontSize=12;align=center;verticalAlign=top;" vertex="1" parent="45">
                    <mxGeometry y="20" width="40" height="100" as="geometry"/>
                </mxCell>
                <mxCell id="48" value="&amp;nbsp; ID&amp;nbsp; &amp;nbsp; &amp;nbsp; &amp;nbsp; &amp;nbsp; &amp;nbsp; &amp;nbsp; &amp;nbsp; &amp;nbsp; Int&lt;br&gt;&amp;nbsp; user_id&amp;nbsp; &amp;nbsp; &amp;nbsp; &amp;nbsp; &amp;nbsp; Int&lt;br&gt;&amp;nbsp; house_id&amp;nbsp; &amp;nbsp; &amp;nbsp; &amp;nbsp;Int&lt;br&gt;&amp;nbsp; isAdmin&amp;nbsp; &amp;nbsp; &amp;nbsp; &amp;nbsp; &amp;nbsp;Boolean&amp;nbsp;&lt;br&gt;&amp;nbsp;&amp;nbsp;" style="whiteSpace=wrap;html=1;shadow=1;fontSize=12;verticalAlign=top;align=left;labelBorderColor=none;strokeColor=default;" vertex="1" parent="45">
                    <mxGeometry x="40" y="20" width="130" height="100" as="geometry"/>
                </mxCell>
                <mxCell id="59" value="" style="group" vertex="1" connectable="0" parent="1">
                    <mxGeometry x="750" y="450" width="230" height="120" as="geometry"/>
                </mxCell>
                <mxCell id="60" value="task" style="whiteSpace=wrap;html=1;shadow=1;fontSize=12;" vertex="1" parent="59">
                    <mxGeometry width="230" height="20" as="geometry"/>
                </mxCell>
                <mxCell id="61" value="PK&lt;br&gt;&lt;br&gt;&lt;br&gt;&lt;br&gt;FK&lt;br&gt;FK" style="whiteSpace=wrap;html=1;shadow=1;fontSize=12;align=center;verticalAlign=top;" vertex="1" parent="59">
                    <mxGeometry y="20" width="46.11764705882352" height="100" as="geometry"/>
                </mxCell>
                <mxCell id="62" value="&amp;nbsp; ID&amp;nbsp; &amp;nbsp; &amp;nbsp; &amp;nbsp; &amp;nbsp; &amp;nbsp; &amp;nbsp; &amp;nbsp; &amp;nbsp; &amp;nbsp; Int&lt;br&gt;&amp;nbsp; title&amp;nbsp; &amp;nbsp; &amp;nbsp; &amp;nbsp; &amp;nbsp; &amp;nbsp; &amp;nbsp; &amp;nbsp; &amp;nbsp; VarChar(50)&lt;br&gt;&amp;nbsp; date&amp;nbsp; &amp;nbsp; &amp;nbsp; &amp;nbsp; &amp;nbsp; &amp;nbsp; &amp;nbsp; &amp;nbsp; &amp;nbsp;TIMESTAMP&lt;br&gt;&amp;nbsp; note&amp;nbsp; &amp;nbsp; &amp;nbsp; &amp;nbsp; &amp;nbsp; &amp;nbsp; &amp;nbsp; &amp;nbsp; &amp;nbsp;VarChar(100)&lt;br&gt;&amp;nbsp; house_id&amp;nbsp; &amp;nbsp; &amp;nbsp; &amp;nbsp; &amp;nbsp;Int&lt;br&gt;&amp;nbsp; user_id&amp;nbsp; &amp;nbsp; &amp;nbsp; &amp;nbsp; &amp;nbsp; &amp;nbsp; Int" style="whiteSpace=wrap;html=1;shadow=1;fontSize=12;verticalAlign=top;align=left;labelBorderColor=none;strokeColor=default;" vertex="1" parent="59">
                    <mxGeometry x="46.12" y="20" width="183.88" height="100" as="geometry"/>
                </mxCell>
                <mxCell id="63" value="" style="group" vertex="1" connectable="0" parent="1">
                    <mxGeometry x="1010" y="220" width="260" height="120" as="geometry"/>
                </mxCell>
                <mxCell id="64" value="expense" style="whiteSpace=wrap;html=1;shadow=1;fontSize=12;" vertex="1" parent="63">
                    <mxGeometry width="260" height="20" as="geometry"/>
                </mxCell>
                <mxCell id="65" value="PK&lt;br&gt;&lt;br&gt;&lt;br&gt;&lt;br&gt;FK&lt;br&gt;FK" style="whiteSpace=wrap;html=1;shadow=1;fontSize=12;align=center;verticalAlign=top;" vertex="1" parent="63">
                    <mxGeometry y="20" width="46.11764705882352" height="100" as="geometry"/>
                </mxCell>
                <mxCell id="66" value="&amp;nbsp; ID&amp;nbsp; &amp;nbsp; &amp;nbsp; &amp;nbsp; &amp;nbsp; &amp;nbsp; &amp;nbsp; &amp;nbsp; &amp;nbsp; &amp;nbsp; &amp;nbsp; &amp;nbsp; &amp;nbsp; &amp;nbsp; Int&lt;br&gt;&amp;nbsp; item_name&amp;nbsp; &amp;nbsp; &amp;nbsp; &amp;nbsp; &amp;nbsp; &amp;nbsp; &amp;nbsp; VarChar(50)&lt;br&gt;&amp;nbsp; fee&amp;nbsp; &amp;nbsp; &amp;nbsp; &amp;nbsp; &amp;nbsp; &amp;nbsp; &amp;nbsp; &amp;nbsp; &amp;nbsp; &amp;nbsp; &amp;nbsp; &amp;nbsp; &amp;nbsp; &amp;nbsp;Int&lt;br&gt;&amp;nbsp; date&amp;nbsp; &amp;nbsp; &amp;nbsp; &amp;nbsp; &amp;nbsp; &amp;nbsp; &amp;nbsp; &amp;nbsp; &amp;nbsp; &amp;nbsp; &amp;nbsp; &amp;nbsp; &amp;nbsp;TIMESTAMP&lt;br&gt;&amp;nbsp; house_id&amp;nbsp; &amp;nbsp; &amp;nbsp; &amp;nbsp; &amp;nbsp; &amp;nbsp; &amp;nbsp; &amp;nbsp; &amp;nbsp;Int&lt;br&gt;&amp;nbsp; buyer_id(user_id)&amp;nbsp; &amp;nbsp; Int" style="whiteSpace=wrap;html=1;shadow=1;fontSize=12;verticalAlign=top;align=left;labelBorderColor=none;strokeColor=default;" vertex="1" parent="63">
                    <mxGeometry x="46.12" y="20" width="213.88" height="100" as="geometry"/>
                </mxCell>
                <mxCell id="67" value="" style="group" vertex="1" connectable="0" parent="1">
                    <mxGeometry x="1330" y="220" width="260" height="120" as="geometry"/>
                </mxCell>
                <mxCell id="68" value="payment" style="whiteSpace=wrap;html=1;shadow=1;fontSize=12;" vertex="1" parent="67">
                    <mxGeometry width="260" height="20" as="geometry"/>
                </mxCell>
                <mxCell id="69" value="PK&lt;br&gt;&lt;br&gt;&lt;br&gt;FK&lt;br&gt;FK" style="whiteSpace=wrap;html=1;shadow=1;fontSize=12;align=center;verticalAlign=top;" vertex="1" parent="67">
                    <mxGeometry y="20" width="46.11764705882352" height="100" as="geometry"/>
                </mxCell>
                <mxCell id="70" value="&amp;nbsp; ID&amp;nbsp; &amp;nbsp; &amp;nbsp; &amp;nbsp; &amp;nbsp; &amp;nbsp; &amp;nbsp; &amp;nbsp; &amp;nbsp; &amp;nbsp; &amp;nbsp; &amp;nbsp; &amp;nbsp; &amp;nbsp; Int&lt;br&gt;&amp;nbsp; fee&amp;nbsp; &amp;nbsp; &amp;nbsp; &amp;nbsp; &amp;nbsp; &amp;nbsp; &amp;nbsp; &amp;nbsp; &amp;nbsp; &amp;nbsp; &amp;nbsp; &amp;nbsp; &amp;nbsp; &amp;nbsp;Int&lt;br&gt;&amp;nbsp; paid_date&amp;nbsp; &amp;nbsp; &amp;nbsp; &amp;nbsp; &amp;nbsp; &amp;nbsp; &amp;nbsp; &amp;nbsp;TIMESTAMP&lt;br&gt;&amp;nbsp; expense_id&amp;nbsp; &amp;nbsp; &amp;nbsp; &amp;nbsp; &amp;nbsp; &amp;nbsp; &amp;nbsp; Int&lt;br&gt;&amp;nbsp; payer_id(user_id)&amp;nbsp; &amp;nbsp; Int" style="whiteSpace=wrap;html=1;shadow=1;fontSize=12;verticalAlign=top;align=left;labelBorderColor=none;strokeColor=default;" vertex="1" parent="67">
                    <mxGeometry x="46.12" y="20" width="213.88" height="100" as="geometry"/>
                </mxCell>
                <mxCell id="75" style="edgeStyle=orthogonalEdgeStyle;html=1;shadow=1;fontSize=12;exitX=0.5;exitY=0;exitDx=0;exitDy=0;endArrow=ERoneToMany;endFill=0;startArrow=ERone;startFill=0;" edge="1" parent="1" source="32">
                    <mxGeometry relative="1" as="geometry">
                        <Array as="points">
                            <mxPoint x="80" y="310"/>
                        </Array>
                        <mxPoint x="260" y="310" as="targetPoint"/>
                    </mxGeometry>
                </mxCell>
                <mxCell id="76" style="edgeStyle=orthogonalEdgeStyle;html=1;shadow=1;fontSize=12;startArrow=ERoneToMany;startFill=0;endArrow=ERone;endFill=0;" edge="1" parent="1" source="48">
                    <mxGeometry relative="1" as="geometry">
                        <mxPoint x="529" y="296" as="targetPoint"/>
                        <Array as="points">
                            <mxPoint x="480" y="320"/>
                            <mxPoint x="480" y="296"/>
                        </Array>
                    </mxGeometry>
                </mxCell>
                <mxCell id="77" style="edgeStyle=orthogonalEdgeStyle;html=1;exitX=0.372;exitY=0.992;exitDx=0;exitDy=0;shadow=1;fontSize=12;startArrow=ERone;startFill=0;endArrow=ERoneToMany;endFill=0;entryX=0.478;entryY=0;entryDx=0;entryDy=0;entryPerimeter=0;exitPerimeter=0;" edge="1" parent="1" source="39" target="41">
                    <mxGeometry relative="1" as="geometry">
                        <mxPoint x="640" y="440" as="targetPoint"/>
                    </mxGeometry>
                </mxCell>
                <mxCell id="79" style="edgeStyle=orthogonalEdgeStyle;html=1;exitX=0.5;exitY=1;exitDx=0;exitDy=0;entryX=0.5;entryY=0;entryDx=0;entryDy=0;shadow=1;fontSize=12;startArrow=ERone;startFill=0;endArrow=ERoneToMany;endFill=0;" edge="1" parent="1" source="39" target="60">
                    <mxGeometry relative="1" as="geometry"/>
                </mxCell>
                <mxCell id="80" style="edgeStyle=orthogonalEdgeStyle;html=1;shadow=1;fontSize=12;startArrow=ERone;startFill=0;endArrow=ERoneToMany;endFill=0;" edge="1" parent="1" source="34" target="62">
                    <mxGeometry relative="1" as="geometry">
                        <Array as="points">
                            <mxPoint x="80" y="640"/>
                            <mxPoint x="870" y="640"/>
                        </Array>
                    </mxGeometry>
                </mxCell>
                <mxCell id="82" style="edgeStyle=orthogonalEdgeStyle;html=1;shadow=1;fontSize=12;startArrow=ERoneToMany;startFill=0;endArrow=ERone;endFill=0;" edge="1" parent="1" source="65">
                    <mxGeometry relative="1" as="geometry">
                        <mxPoint x="850" y="290" as="targetPoint"/>
                    </mxGeometry>
                </mxCell>
                <mxCell id="83" style="edgeStyle=orthogonalEdgeStyle;html=1;shadow=1;fontSize=12;startArrow=ERone;startFill=0;endArrow=ERoneToMany;endFill=0;exitX=0.35;exitY=1.042;exitDx=0;exitDy=0;exitPerimeter=0;entryX=0.316;entryY=-0.159;entryDx=0;entryDy=0;entryPerimeter=0;" edge="1" parent="1" source="66" target="85">
                    <mxGeometry relative="1" as="geometry">
                        <mxPoint x="1270" y="290" as="sourcePoint"/>
                        <mxPoint x="1130" y="390" as="targetPoint"/>
                        <Array as="points">
                            <mxPoint x="1131" y="375"/>
                            <mxPoint x="1270" y="375"/>
                        </Array>
                    </mxGeometry>
                </mxCell>
                <mxCell id="84" value="" style="group" vertex="1" connectable="0" parent="1">
                    <mxGeometry x="1200" y="420" width="220" height="120" as="geometry"/>
                </mxCell>
                <mxCell id="85" value="expense_payment" style="whiteSpace=wrap;html=1;shadow=1;fontSize=12;" vertex="1" parent="84">
                    <mxGeometry width="220" height="20" as="geometry"/>
                </mxCell>
                <mxCell id="86" value="PK&lt;br&gt;FK&lt;br&gt;FK" style="whiteSpace=wrap;html=1;shadow=1;fontSize=12;align=center;verticalAlign=top;" vertex="1" parent="84">
                    <mxGeometry y="20" width="39.02262443438914" height="100" as="geometry"/>
                </mxCell>
                <mxCell id="87" value="&amp;nbsp; ID&amp;nbsp; &amp;nbsp; &amp;nbsp; &amp;nbsp; &amp;nbsp; &amp;nbsp; &amp;nbsp; &amp;nbsp; &amp;nbsp; &amp;nbsp; &amp;nbsp; &amp;nbsp; &amp;nbsp; &amp;nbsp; Int&lt;br&gt;&amp;nbsp; expense_id&amp;nbsp; &amp;nbsp; &amp;nbsp; &amp;nbsp; &amp;nbsp; &amp;nbsp; &amp;nbsp;Int&lt;br&gt;&amp;nbsp; payment_id&amp;nbsp; &amp;nbsp; &amp;nbsp; &amp;nbsp; &amp;nbsp; &amp;nbsp; &amp;nbsp;Int" style="whiteSpace=wrap;html=1;shadow=1;fontSize=12;verticalAlign=top;align=left;labelBorderColor=none;strokeColor=default;" vertex="1" parent="84">
                    <mxGeometry x="39.02461538461538" y="20" width="180.9753846153846" height="100" as="geometry"/>
                </mxCell>
                <mxCell id="88" style="edgeStyle=orthogonalEdgeStyle;html=1;entryX=0.545;entryY=0;entryDx=0;entryDy=0;entryPerimeter=0;shadow=1;fontSize=12;startArrow=ERone;startFill=0;endArrow=ERoneToMany;endFill=0;exitX=0.377;exitY=1.013;exitDx=0;exitDy=0;exitPerimeter=0;" edge="1" parent="1" source="70" target="85">
                    <mxGeometry relative="1" as="geometry"/>
                </mxCell>
            </root>
        </mxGraphModel>
    </diagram>
</mxfile>
